<svg width="102" height="102" viewBox="0 0 102 102" fill="none" xmlns="http://www.w3.org/2000/svg">
<rect width="102" height="102" fill="#0C0C0C"/>
<path d="M35.4389 50.3765C40.7895 50.3765 45.1271 46.0389 45.1271 40.6883C45.1271 35.3376 40.7895 31 35.4389 31C30.0882 31 25.7506 35.3376 25.7506 40.6883C25.7506 46.0389 30.0882 50.3765 35.4389 50.3765Z" stroke="white" stroke-width="3" stroke-miterlimit="10"/>
<path d="M66.2748 50.3765C71.6255 50.3765 75.9631 46.0389 75.9631 40.6883C75.9631 35.3376 71.6255 31 66.2748 31C60.9241 31 56.5865 35.3376 56.5865 40.6883C56.5865 46.0389 60.9241 50.3765 66.2748 50.3765Z" stroke="white" stroke-width="3" stroke-miterlimit="10"/>
<path d="M18 71.6903C18 62.0602 25.8087 54.2515 35.4389 54.2515C45.069 54.2515 52.8777 62.0602 52.8777 71.6903" stroke="white" stroke-width="3" stroke-miterlimit="10"/>
<path d="M83.7138 71.6903C83.7138 62.0602 75.9051 54.2515 66.275 54.2515C62.0029 54.2515 58.0893 55.7882 55.0568 58.3389" stroke="white" stroke-width="3" stroke-miterlimit="10"/>
</svg>
