<svg width="102" height="102" viewBox="0 0 102 102" fill="none" xmlns="http://www.w3.org/2000/svg">
<rect width="102" height="102" fill="#0C0C0C"/>
<path d="M56.3415 37.9278V30.1118C56.3415 28.3941 54.9474 27 53.2297 27H22.1118C20.3941 27 19 28.3941 19 30.1118V55.0061C19 56.7238 20.3941 58.1179 22.1118 58.1179H28.3354V64.3415L37.6707 58.1179H45.4502" stroke="white" stroke-width="3" stroke-miterlimit="10" stroke-linecap="square"/>
<path d="M48.6918 69.0866H64.2508L73.5861 75.3102V69.0866H79.8097C81.5274 69.0866 82.9215 67.6926 82.9215 65.9749V41.0805C82.9215 39.3628 81.5274 37.9688 79.8097 37.9688H48.6918C46.9741 37.9688 45.58 39.3628 45.58 41.0805V65.9749C45.58 67.6926 46.9741 69.0866 48.6918 69.0866Z" stroke="white" stroke-width="3" stroke-miterlimit="10" stroke-linecap="square"/>
</svg>
