<svg width="48" height="48" viewBox="0 0 48 48" fill="none" xmlns="http://www.w3.org/2000/svg">
<rect width="48" height="48" fill="#0D0D0D"/>
<circle cx="24" cy="24" r="24" fill="#0D0D0D"/>
<path d="M14.4947 31.604H13.5442C12.5358 31.604 11.5688 31.2035 10.8558 30.4905C10.1428 29.7774 9.74219 28.8104 9.74219 27.802V24C9.74219 22.9917 10.1428 22.0246 10.8558 21.3116C11.5688 20.5986 12.5358 20.198 13.5442 20.198H14.4947C14.7468 20.198 14.9886 20.2981 15.1668 20.4764C15.3451 20.6546 15.4452 20.8964 15.4452 21.1485V30.6535C15.4452 30.9056 15.3451 31.1474 15.1668 31.3256C14.9886 31.5039 14.7468 31.604 14.4947 31.604Z" stroke="white" stroke-width="1.5" stroke-linecap="round" stroke-linejoin="round"/>
<path d="M34.4557 31.604H33.5052C33.2531 31.604 33.0113 31.5039 32.8331 31.3256C32.6548 31.1474 32.5547 30.9056 32.5547 30.6535V21.1485C32.5547 20.8964 32.6548 20.6546 32.8331 20.4764C33.0113 20.2981 33.2531 20.198 33.5052 20.198H34.4557C35.4641 20.198 36.4311 20.5986 37.1441 21.3116C37.8571 22.0246 38.2577 22.9917 38.2577 24V27.802C38.2577 28.8104 37.8571 29.7774 37.1441 30.4905C36.4311 31.2035 35.4641 31.604 34.4557 31.604Z" stroke="white" stroke-width="1.5" stroke-linecap="round" stroke-linejoin="round"/>
<path d="M13.5449 20.198C13.5449 17.425 14.6465 14.7656 16.6073 12.8048C18.5681 10.844 21.2275 9.74243 24.0005 9.74243C26.7734 9.74243 29.4329 10.844 31.3936 12.8048C33.3544 14.7656 34.456 17.425 34.456 20.198" stroke="white" stroke-width="1.5" stroke-linecap="round" stroke-linejoin="round"/>
<path d="M27.8018 36.3565H30.6533C31.6616 36.3565 32.6287 35.956 33.3417 35.2429C34.0547 34.5299 34.4553 33.5629 34.4553 32.5545V31.604" stroke="white" stroke-width="1.5" stroke-linecap="round" stroke-linejoin="round"/>
<path d="M25.9006 38.2576H23.9996C23.4955 38.2576 23.0119 38.0573 22.6554 37.7008C22.2989 37.3443 22.0986 36.8608 22.0986 36.3566C22.0986 35.8524 22.2989 35.3689 22.6554 35.0124C23.0119 34.6559 23.4955 34.4556 23.9996 34.4556H25.9006C26.4048 34.4556 26.8884 34.6559 27.2449 35.0124C27.6014 35.3689 27.8017 35.8524 27.8017 36.3566C27.8017 36.8608 27.6014 37.3443 27.2449 37.7008C26.8884 38.0573 26.4048 38.2576 25.9006 38.2576Z" stroke="white" stroke-width="1.5" stroke-linecap="round" stroke-linejoin="round"/>
</svg>
