<svg width="48" height="48" viewBox="0 0 48 48" fill="none" xmlns="http://www.w3.org/2000/svg">
<rect width="48" height="48" fill="#0D0D0D"/>
<circle cx="24" cy="24" r="24" fill="#0D0D0D"/>
<path d="M36.4316 17.3699V33.1166C36.4316 33.776 36.1696 34.4084 35.7034 34.8747C35.2371 35.3409 34.6047 35.6029 33.9453 35.6029C33.2859 35.6029 32.6534 35.3409 32.1872 34.8747C31.7209 34.4084 31.4589 33.776 31.4589 33.1166V14.0548C31.4589 13.6152 31.2843 13.1936 30.9735 12.8827C30.6626 12.5719 30.241 12.3972 29.8014 12.3972H13.2259C12.7863 12.3972 12.3647 12.5719 12.0538 12.8827C11.743 13.1936 11.5684 13.6152 11.5684 14.0548V33.1166C11.5684 33.776 11.8303 34.4084 12.2966 34.8747C12.7629 35.3409 13.3953 35.6029 14.0547 35.6029H33.9453" stroke="white" stroke-width="1.5" stroke-linecap="round" stroke-linejoin="round"/>
<path d="M15.7119 27.3152H27.3148" stroke="white" stroke-width="1.5" stroke-linecap="round" stroke-linejoin="round"/>
<path d="M15.7119 30.6301H22.3421" stroke="white" stroke-width="1.5" stroke-linecap="round" stroke-linejoin="round"/>
<path d="M26.486 16.541H16.5407C16.083 16.541 15.7119 16.9121 15.7119 17.3698V22.3424C15.7119 22.8002 16.083 23.1712 16.5407 23.1712H26.486C26.9437 23.1712 27.3148 22.8002 27.3148 22.3424V17.3698C27.3148 16.9121 26.9437 16.541 26.486 16.541Z" stroke="white" stroke-width="1.5" stroke-linecap="round" stroke-linejoin="round"/>
</svg>
