<svg width="102" height="102" viewBox="0 0 102 102" fill="none" xmlns="http://www.w3.org/2000/svg">
<rect width="102" height="102" fill="#0D0D0D"/>
<path d="M79.3019 51.1675C79.3016 49.5332 78.768 47.9437 77.782 46.6403C76.7961 45.3369 75.4118 44.3908 73.8393 43.9457C74.6156 43.1928 75.1585 42.2322 75.4032 41.1788C75.6478 40.1254 75.5837 39.0238 75.2186 38.0059C74.8535 36.9879 74.2028 36.0967 73.3445 35.4389C72.4861 34.7811 71.4564 34.3846 70.3785 34.2967C70.0733 33.9538 69.728 33.6488 69.3501 33.3883C70.0982 31.5883 70.1169 29.5678 69.4021 27.7543C68.6873 25.9407 67.2951 24.4764 65.52 23.6709C63.7449 22.8654 61.726 22.782 59.8905 23.4383C58.055 24.0946 56.5467 25.4391 55.6847 27.1875C55.1619 26.4763 54.479 25.898 53.6913 25.4995C52.9036 25.1009 52.0332 24.8932 51.1505 24.8932C50.2677 24.8932 49.3973 25.1009 48.6097 25.4995C47.822 25.898 47.1391 26.4763 46.6162 27.1875C45.7542 25.4391 44.246 24.0946 42.4105 23.4383C40.5749 22.782 38.5561 22.8654 36.781 23.6709C35.0059 24.4764 33.6137 25.9407 32.8989 27.7543C32.1841 29.5678 32.2027 31.5883 32.9509 33.3883C32.5729 33.6488 32.2276 33.9538 31.9224 34.2967C30.8446 34.3846 29.8148 34.7811 28.9565 35.4389C28.0981 36.0967 27.4475 36.9879 27.0824 38.0059C26.7173 39.0238 26.6532 40.1254 26.8978 41.1788C27.1424 42.2322 27.6854 43.1928 28.4617 43.9457C26.8891 44.391 25.5049 45.3374 24.5191 46.641C23.5334 47.9447 23 49.5344 23 51.1688C23 52.8031 23.5334 54.3929 24.5191 55.6965C25.5049 57.0002 26.8891 57.9465 28.4617 58.3918C27.6851 59.1444 27.1419 60.1048 26.8971 61.1582C26.6524 62.2115 26.7164 63.3131 27.0816 64.331C27.4467 65.3489 28.0976 66.2399 28.9561 66.8975C29.8147 67.555 30.8445 67.9511 31.9224 68.0384C32.2276 68.3813 32.5729 68.6862 32.9509 68.9467C32.2027 70.7467 32.1841 72.7672 32.8989 74.5808C33.6137 76.3943 35.0059 77.8587 36.781 78.6642C38.5561 79.4697 40.5749 79.5531 42.4105 78.8968C44.246 78.2405 45.7542 76.8959 46.6162 75.1475C47.1391 75.8588 47.822 76.437 48.6097 76.8356C49.3973 77.2341 50.2677 77.4418 51.1505 77.4418C52.0332 77.4418 52.9036 77.2341 53.6913 76.8356C54.479 76.437 55.1619 75.8588 55.6847 75.1475C56.5467 76.8959 58.055 78.2405 59.8905 78.8968C61.726 79.5531 63.7449 79.4697 65.52 78.6642C67.2951 77.8587 68.6873 76.3943 69.4021 74.5808C70.1169 72.7672 70.0982 70.7467 69.3501 68.9467C69.728 68.6862 70.0733 68.3813 70.3785 68.0384C71.4564 67.9511 72.4863 67.555 73.3449 66.8975C74.2034 66.2399 74.8542 65.3489 75.2194 64.331C75.5846 63.3131 75.6486 62.2115 75.4038 61.1582C75.1591 60.1048 74.6159 59.1444 73.8393 58.3918C75.4122 57.9466 76.7968 57.0002 77.7828 55.6963C78.7687 54.3923 79.3021 52.8022 79.3019 51.1675Z" stroke="white" stroke-width="2.5" stroke-linecap="round" stroke-linejoin="round"/>
<path d="M51.1504 77.4424V41.7839" stroke="white" stroke-width="2.5" stroke-linecap="round" stroke-linejoin="round"/>
<path d="M51.1505 41.7839C53.2235 41.7839 54.904 40.1034 54.904 38.0304C54.904 35.9574 53.2235 34.2769 51.1505 34.2769C49.0775 34.2769 47.397 35.9574 47.397 38.0304C47.397 40.1034 49.0775 41.7839 51.1505 41.7839Z" stroke="white" stroke-width="2.5" stroke-linecap="round" stroke-linejoin="round"/>
<path d="M43.6435 68.0586V60.5515L38.0132 56.798V51.1677" stroke="white" stroke-width="2.5" stroke-linejoin="round"/>
<path d="M38.0133 51.1677C40.0863 51.1677 41.7668 49.4872 41.7668 47.4142C41.7668 45.3412 40.0863 43.6606 38.0133 43.6606C35.9403 43.6606 34.2598 45.3412 34.2598 47.4142C34.2598 49.4872 35.9403 51.1677 38.0133 51.1677Z" stroke="white" stroke-width="2.5" stroke-linecap="round" stroke-linejoin="round"/>
<path d="M58.6577 68.0586V60.5515L64.288 56.798V51.1677" stroke="white" stroke-width="2.5" stroke-linejoin="round"/>
<path d="M64.2877 51.1677C66.3607 51.1677 68.0412 49.4872 68.0412 47.4142C68.0412 45.3412 66.3607 43.6606 64.2877 43.6606C62.2147 43.6606 60.5342 45.3412 60.5342 47.4142C60.5342 49.4872 62.2147 51.1677 64.2877 51.1677Z" stroke="white" stroke-width="2.5" stroke-linecap="round" stroke-linejoin="round"/>
</svg>
