<svg width="254" height="37" viewBox="0 0 254 37" fill="none" xmlns="http://www.w3.org/2000/svg">
<path d="M88.9465 28.0551C86.9154 28.0551 85.1249 27.6141 83.5748 26.7322C82.0248 25.8503 80.7955 24.6209 79.8868 23.0442C79.0049 21.4674 78.564 19.6635 78.564 17.6324C78.564 15.6014 79.0049 13.7975 79.8868 12.2207C80.7955 10.644 82.0248 9.41462 83.5748 8.53271C85.1249 7.6508 86.9154 7.20984 88.9465 7.20984C91.4853 7.20984 93.6233 7.87795 95.3604 9.21419C97.0975 10.5237 98.2066 12.341 98.6876 14.666H93.2759C93.0086 13.7039 92.4741 12.9556 91.6724 12.4211C90.8974 11.8599 89.9754 11.5793 88.9064 11.5793C87.49 11.5793 86.2874 12.1138 85.2986 13.1828C84.3098 14.2518 83.8154 15.735 83.8154 17.6324C83.8154 19.5299 84.3098 21.0131 85.2986 22.0821C86.2874 23.1511 87.49 23.6856 88.9064 23.6856C89.9754 23.6856 90.8974 23.4183 91.6724 22.8838C92.4741 22.3493 93.0086 21.5877 93.2759 20.5989H98.6876C98.2066 22.8438 97.0975 24.6477 95.3604 26.0106C93.6233 27.3736 91.4853 28.0551 88.9465 28.0551Z" fill="#343434"/>
<path d="M111.981 28.0551C110.057 28.0551 108.32 27.6141 106.77 26.7322C105.246 25.8503 104.03 24.6343 103.122 23.0843C102.24 21.5075 101.799 19.6902 101.799 17.6324C101.799 15.5747 102.253 13.7707 103.162 12.2207C104.07 10.644 105.286 9.41462 106.81 8.53271C108.36 7.6508 110.097 7.20984 112.021 7.20984C113.918 7.20984 115.629 7.6508 117.152 8.53271C118.702 9.41462 119.918 10.644 120.8 12.2207C121.709 13.7707 122.163 15.5747 122.163 17.6324C122.163 19.6902 121.709 21.5075 120.8 23.0843C119.918 24.6343 118.702 25.8503 117.152 26.7322C115.602 27.6141 113.878 28.0551 111.981 28.0551ZM111.981 23.6054C113.317 23.6054 114.48 23.111 115.468 22.1222C116.457 21.1066 116.952 19.6101 116.952 17.6324C116.952 15.6548 116.457 14.1716 115.468 13.1828C114.48 12.1673 113.33 11.6595 112.021 11.6595C110.658 11.6595 109.482 12.1673 108.493 13.1828C107.531 14.1716 107.05 15.6548 107.05 17.6324C107.05 19.6101 107.531 21.1066 108.493 22.1222C109.482 23.111 110.645 23.6054 111.981 23.6054Z" fill="#343434"/>
<path d="M125.949 27.574V7.69088H130.479L130.92 10.3767C131.561 9.41462 132.403 8.65297 133.445 8.09175C134.514 7.50381 135.744 7.20984 137.133 7.20984C140.207 7.20984 142.385 8.39908 143.667 10.7776C144.389 9.68187 145.351 8.81332 146.554 8.17192C147.783 7.53053 149.119 7.20984 150.562 7.20984C153.155 7.20984 155.146 7.98485 156.535 9.53488C157.925 11.0849 158.62 13.3565 158.62 16.3497V27.574H153.489V16.8307C153.489 15.1203 153.155 13.8108 152.487 12.9022C151.845 11.9935 150.843 11.5392 149.48 11.5392C148.09 11.5392 146.968 12.047 146.113 13.0625C145.284 14.0781 144.87 15.4945 144.87 17.3118V27.574H139.739V16.8307C139.739 15.1203 139.405 13.8108 138.737 12.9022C138.069 11.9935 137.04 11.5392 135.65 11.5392C134.287 11.5392 133.178 12.047 132.323 13.0625C131.494 14.0781 131.08 15.4945 131.08 17.3118V27.574H125.949Z" fill="#343434"/>
<path d="M162.69 36.3931V7.69088H167.259L167.821 10.5371C168.462 9.65514 169.304 8.88013 170.346 8.21201C171.415 7.5439 172.791 7.20984 174.475 7.20984C176.346 7.20984 178.016 7.66416 179.486 8.57279C180.956 9.48143 182.118 10.7241 182.974 12.3009C183.829 13.8776 184.256 15.6682 184.256 17.6725C184.256 19.6769 183.829 21.4674 182.974 23.0442C182.118 24.5942 180.956 25.8235 179.486 26.7322C178.016 27.6141 176.346 28.0551 174.475 28.0551C172.979 28.0551 171.669 27.7744 170.547 27.2132C169.424 26.652 168.516 25.8636 167.821 24.8481V36.3931H162.69ZM173.393 23.5653C175.023 23.5653 176.373 23.0175 177.442 21.9218C178.511 20.826 179.045 19.4096 179.045 17.6725C179.045 15.9354 178.511 14.5057 177.442 13.3832C176.373 12.2608 175.023 11.6996 173.393 11.6996C171.736 11.6996 170.373 12.2608 169.304 13.3832C168.262 14.4789 167.741 15.8953 167.741 17.6324C167.741 19.3695 168.262 20.7993 169.304 21.9218C170.373 23.0175 171.736 23.5653 173.393 23.5653Z" fill="#343434"/>
<path d="M194.893 28.0551C193.183 28.0551 191.78 27.7878 190.684 27.2533C189.588 26.6921 188.773 25.9572 188.239 25.0485C187.704 24.1399 187.437 23.1377 187.437 22.042C187.437 20.198 188.159 18.7014 189.602 17.5523C191.045 16.4031 193.21 15.8285 196.096 15.8285H201.147V15.3475C201.147 13.9845 200.759 12.9824 199.984 12.341C199.209 11.6996 198.247 11.3789 197.098 11.3789C196.056 11.3789 195.147 11.6328 194.372 12.1405C193.597 12.6216 193.116 13.3431 192.929 14.3052H187.918C188.052 12.8621 188.533 11.606 189.361 10.5371C190.216 9.46807 191.312 8.65297 192.648 8.09175C193.985 7.50381 195.481 7.20984 197.138 7.20984C199.971 7.20984 202.202 7.91804 203.833 9.33445C205.463 10.7509 206.278 12.7552 206.278 15.3475V27.574H201.908L201.427 24.3671C200.839 25.436 200.011 26.318 198.942 27.0128C197.9 27.7076 196.55 28.0551 194.893 28.0551ZM196.056 24.0464C197.526 24.0464 198.661 23.5653 199.463 22.6032C200.292 21.6411 200.813 20.4519 201.026 19.0355H196.657C195.294 19.0355 194.319 19.2894 193.731 19.7971C193.143 20.2782 192.849 20.8795 192.849 21.6011C192.849 22.3761 193.143 22.9774 193.731 23.405C194.319 23.8326 195.094 24.0464 196.056 24.0464Z" fill="#343434"/>
<path d="M210.373 27.574V7.69088H214.903L215.303 11.0582C215.918 9.8823 216.8 8.94694 217.949 8.2521C219.125 7.55726 220.501 7.20984 222.078 7.20984C224.537 7.20984 226.448 7.98485 227.811 9.53488C229.173 11.0849 229.855 13.3565 229.855 16.3497V27.574H224.724V16.8307C224.724 15.1203 224.376 13.8108 223.682 12.9022C222.987 11.9935 221.904 11.5392 220.435 11.5392C218.991 11.5392 217.802 12.047 216.867 13.0625C215.958 14.0781 215.504 15.4945 215.504 17.3118V27.574H210.373Z" fill="#343434"/>
<path d="M235.78 36.3931L240.39 26.2511H239.187L231.45 7.69088H237.022L242.594 21.6812L248.407 7.69088H253.859L241.231 36.3931H235.78Z" fill="#343434"/>
<path d="M19.47 33.5476C18.4665 34.5512 16.839 34.5498 15.8372 33.5445L1.80864 19.4678C0.809255 18.465 0.810648 16.8423 1.81175 15.8412L15.8403 1.81267C16.8414 0.811566 18.464 0.810172 19.4669 1.80956L33.5436 15.8381C34.5488 16.8399 34.5502 18.4674 33.5467 19.4709L19.47 33.5476Z" fill="#626262"/>
<path d="M37.1801 33.5436C36.1783 34.5488 34.5508 34.5502 33.5473 33.5467L19.4706 19.47C18.467 18.4665 18.4684 16.839 19.4737 15.8372L33.5504 1.80864C34.5532 0.809255 36.1759 0.810648 37.177 1.81175L51.2055 15.8403C52.2066 16.8414 52.208 18.464 51.2086 19.4669L37.1801 33.5436Z" fill="#343434"/>
<path d="M50.3066 33.5455C49.304 34.5498 47.6767 34.5498 46.6741 33.5455L32.6191 19.4686C31.6175 18.4654 31.6189 16.8401 32.6222 15.8386L46.6772 1.8098C47.6791 0.80973 49.3016 0.80973 50.3035 1.8098L64.3584 15.8386C65.3618 16.8401 65.3632 18.4654 64.3616 19.4686L50.3066 33.5455Z" fill="#626262"/>
</svg>
