<svg width="225" height="41" viewBox="0 0 225 41" fill="none" xmlns="http://www.w3.org/2000/svg">
<path d="M48.4471 17.1872C48.4471 14.7798 48.9847 12.6294 50.0599 10.7361C51.1585 8.81948 52.6427 7.33525 54.5126 6.28344C56.4059 5.20825 58.5212 4.67065 60.8586 4.67065C63.5933 4.67065 65.9891 5.37186 68.046 6.77428C70.1028 8.1767 71.5403 10.1167 72.3584 12.5943H66.7137C66.1527 11.4256 65.358 10.5491 64.3295 9.96479C63.3245 9.38045 62.1558 9.08827 60.8235 9.08827C59.3977 9.08827 58.1238 9.42719 57.0019 10.105C55.9033 10.7595 55.0385 11.6944 54.4074 12.9099C53.7997 14.1253 53.4959 15.5511 53.4959 17.1872C53.4959 18.8 53.7997 20.2258 54.4074 21.4646C55.0385 22.6801 55.9033 23.6267 57.0019 24.3045C58.1238 24.959 59.3977 25.2862 60.8235 25.2862C62.1558 25.2862 63.3245 24.994 64.3295 24.4097C65.358 23.802 66.1527 22.9138 66.7137 21.7451H72.3584C71.5403 24.2461 70.1028 26.1978 68.046 27.6002C66.0124 28.9793 63.6166 29.6688 60.8586 29.6688C58.5212 29.6688 56.4059 29.1429 54.5126 28.0911C52.6427 27.0159 51.1585 25.5316 50.0599 23.6384C48.9847 21.7451 48.4471 19.5947 48.4471 17.1872Z" fill="#343434"/>
<path d="M85.1757 29.774C83.3058 29.774 81.6229 29.3649 80.127 28.5468C78.6311 27.7054 77.4507 26.525 76.5859 25.0057C75.7445 23.4864 75.3237 21.7334 75.3237 19.7467C75.3237 17.7599 75.7562 16.0069 76.621 14.4876C77.5092 12.9683 78.7129 11.7996 80.2322 10.9815C81.7515 10.1401 83.4461 9.71936 85.316 9.71936C87.1859 9.71936 88.8805 10.1401 90.3997 10.9815C91.919 11.7996 93.1111 12.9683 93.9759 14.4876C94.8641 16.0069 95.3082 17.7599 95.3082 19.7467C95.3082 21.7334 94.8524 23.4864 93.9409 25.0057C93.0527 26.525 91.8372 27.7054 90.2946 28.5468C88.7753 29.3649 87.069 29.774 85.1757 29.774ZM85.1757 25.4966C86.0639 25.4966 86.8937 25.2862 87.665 24.8655C88.4597 24.4214 89.0908 23.7669 89.5583 22.9021C90.0258 22.0373 90.2595 20.9855 90.2595 19.7467C90.2595 17.9001 89.7687 16.486 88.787 15.5043C87.8286 14.4993 86.6483 13.9967 85.2459 13.9967C83.8434 13.9967 82.6631 14.4993 81.7047 15.5043C80.7698 16.486 80.3023 17.9001 80.3023 19.7467C80.3023 21.5932 80.7581 23.019 81.6697 24.024C82.6046 25.0057 83.7733 25.4966 85.1757 25.4966Z" fill="#343434"/>
<path d="M123.03 9.75442C125.414 9.75442 127.331 10.4907 128.78 11.9632C130.253 13.4124 130.989 15.4459 130.989 18.0638V29.4584H126.081V18.7299C126.081 17.2106 125.695 16.0536 124.924 15.2589C124.152 14.4408 123.1 14.0318 121.768 14.0318C120.436 14.0318 119.372 14.4408 118.578 15.2589C117.806 16.0536 117.421 17.2106 117.421 18.7299V29.4584H112.512V18.7299C112.512 17.2106 112.127 16.0536 111.355 15.2589C110.584 14.4408 109.532 14.0318 108.2 14.0318C106.844 14.0318 105.769 14.4408 104.974 15.2589C104.203 16.0536 103.817 17.2106 103.817 18.7299V29.4584H98.9088V10.0349H103.817V12.384C104.448 11.5659 105.255 10.9231 106.236 10.4556C107.241 9.98816 108.34 9.75442 109.532 9.75442C111.051 9.75442 112.407 10.0817 113.599 10.7361C114.791 11.3672 115.714 12.2788 116.369 13.4708C117 12.3489 117.912 11.449 119.104 10.7712C120.319 10.0933 121.628 9.75442 123.03 9.75442Z" fill="#343434"/>
<path d="M140.555 12.8397C141.186 11.9515 142.051 11.2153 143.15 10.6309C144.272 10.0232 145.546 9.71936 146.971 9.71936C148.631 9.71936 150.127 10.1284 151.459 10.9465C152.815 11.7646 153.878 12.9332 154.65 14.4525C155.444 15.9484 155.842 17.6898 155.842 19.6765C155.842 21.6633 155.444 23.428 154.65 24.9707C153.878 26.49 152.815 27.6703 151.459 28.5118C150.127 29.3532 148.631 29.774 146.971 29.774C145.546 29.774 144.283 29.4818 143.185 28.8975C142.11 28.3131 141.233 27.5768 140.555 26.6886V38.7144H135.647V10.0349H140.555V12.8397ZM150.828 19.6765C150.828 18.5079 150.583 17.5028 150.092 16.6613C149.624 15.7965 148.993 15.1421 148.199 14.698C147.427 14.2539 146.586 14.0318 145.674 14.0318C144.786 14.0318 143.945 14.2655 143.15 14.733C142.379 15.1771 141.747 15.8316 141.257 16.6964C140.789 17.5612 140.555 18.578 140.555 19.7467C140.555 20.9153 140.789 21.9321 141.257 22.7969C141.747 23.6617 142.379 24.3279 143.15 24.7954C143.945 25.2395 144.786 25.4615 145.674 25.4615C146.586 25.4615 147.427 25.2278 148.199 24.7603C148.993 24.2928 149.624 23.6267 150.092 22.7619C150.583 21.897 150.828 20.8686 150.828 19.6765Z" fill="#343434"/>
<path d="M158.146 19.6765C158.146 17.7132 158.532 15.9718 159.303 14.4525C160.098 12.9332 161.162 11.7646 162.494 10.9465C163.85 10.1284 165.357 9.71936 167.017 9.71936C168.466 9.71936 169.728 10.0115 170.803 10.5959C171.902 11.1802 172.778 11.9165 173.433 12.8047V10.0349H178.376V29.4584H173.433V26.6185C172.802 27.5301 171.925 28.2897 170.803 28.8975C169.705 29.4818 168.431 29.774 166.982 29.774C165.346 29.774 163.85 29.3532 162.494 28.5118C161.162 27.6703 160.098 26.49 159.303 24.9707C158.532 23.428 158.146 21.6633 158.146 19.6765ZM173.433 19.7467C173.433 18.5546 173.199 17.5379 172.732 16.6964C172.264 15.8316 171.633 15.1771 170.838 14.733C170.044 14.2655 169.19 14.0318 168.279 14.0318C167.367 14.0318 166.526 14.2539 165.755 14.698C164.983 15.1421 164.352 15.7965 163.861 16.6613C163.394 17.5028 163.16 18.5079 163.16 19.6765C163.16 20.8452 163.394 21.8737 163.861 22.7619C164.352 23.6267 164.983 24.2928 165.755 24.7603C166.549 25.2278 167.391 25.4615 168.279 25.4615C169.19 25.4615 170.044 25.2395 170.838 24.7954C171.633 24.3279 172.264 23.6734 172.732 22.832C173.199 21.9672 173.433 20.9387 173.433 19.7467Z" fill="#343434"/>
<path d="M193.934 9.75442C196.248 9.75442 198.118 10.4907 199.544 11.9632C200.969 13.4124 201.682 15.4459 201.682 18.0638V29.4584H196.774V18.7299C196.774 17.1872 196.388 16.0069 195.617 15.1888C194.845 14.3473 193.794 13.9266 192.461 13.9266C191.106 13.9266 190.03 14.3473 189.236 15.1888C188.464 16.0069 188.079 17.1872 188.079 18.7299V29.4584H183.17V10.0349H188.079V12.4541C188.733 11.6126 189.563 10.9582 190.568 10.4907C191.597 9.99985 192.718 9.75442 193.934 9.75442Z" fill="#343434"/>
<path d="M224.932 10.0349L212.906 38.6443H207.682L211.889 28.9676L204.106 10.0349H209.611L214.624 23.6033L219.708 10.0349H224.932Z" fill="#343434"/>
<path d="M3.60228 40.0144H0.103271V15.512H13.2285V30.3882C13.2285 35.7038 8.92103 40.0144 3.60228 40.0144Z" fill="#343434"/>
<path d="M30.7298 15.5117C30.7298 7.05605 23.8754 0.198486 15.4166 0.198486C14.6737 0.198486 13.9433 0.25467 13.2285 0.357674V15.5117H30.7298V15.5117Z" fill="#343434"/>
<path d="M25.7714 31.654C29.128 30.2844 30.7388 26.453 29.3692 23.0963C27.9996 19.7397 24.1682 18.1289 20.8115 19.4985C17.4549 20.8681 15.8441 24.6996 17.2137 28.0562C18.5833 31.4129 22.4147 33.0237 25.7714 31.654Z" fill="#626262"/>
</svg>
