<svg width="224" height="41" viewBox="0 0 224 41" fill="none" xmlns="http://www.w3.org/2000/svg">
<path d="M50.0264 18.8706C50.0264 16.4976 50.5563 14.378 51.6161 12.5119C52.6989 10.6227 54.1619 9.15971 56.005 8.12295C57.8711 7.06316 59.9562 6.53326 62.2601 6.53326C64.9556 6.53326 67.3171 7.22443 69.3445 8.60677C71.372 9.98911 72.7889 11.9013 73.5952 14.3435H68.0313C67.4784 13.1915 66.695 12.3276 65.6813 11.7516C64.6907 11.1756 63.5387 10.8876 62.2255 10.8876C60.8201 10.8876 59.5645 11.2217 58.4586 11.8898C57.3758 12.5349 56.5234 13.4565 55.9013 14.6545C55.3023 15.8525 55.0028 17.2579 55.0028 18.8706C55.0028 20.4603 55.3023 21.8657 55.9013 23.0868C56.5234 24.2848 57.3758 25.2179 58.4586 25.886C59.5645 26.5311 60.8201 26.8536 62.2255 26.8536C63.5387 26.8536 64.6907 26.5656 65.6813 25.9897C66.695 25.3907 67.4784 24.5152 68.0313 23.3632H73.5952C72.7889 25.8284 71.372 27.7521 69.3445 29.1345C67.3401 30.4938 64.9786 31.1734 62.2601 31.1734C59.9562 31.1734 57.8711 30.6551 56.005 29.6183C54.1619 28.5585 52.6989 27.0955 51.6161 25.2294C50.5563 23.3632 50.0264 21.2436 50.0264 18.8706Z" fill="#343434"/>
<path d="M86.229 31.2771C84.3859 31.2771 82.7271 30.8739 81.2526 30.0676C79.7781 29.2382 78.6146 28.0747 77.7622 26.5772C76.9328 25.0796 76.5181 23.3517 76.5181 21.3934C76.5181 19.4351 76.9443 17.7072 77.7968 16.2096C78.6722 14.7121 79.8588 13.5601 81.3563 12.7538C82.8538 11.9244 84.5241 11.5097 86.3673 11.5097C88.2104 11.5097 89.8807 11.9244 91.3782 12.7538C92.8758 13.5601 94.0507 14.7121 94.9032 16.2096C95.7787 17.7072 96.2164 19.4351 96.2164 21.3934C96.2164 23.3517 95.7671 25.0796 94.8686 26.5772C93.9931 28.0747 92.7951 29.2382 91.2746 30.0676C89.777 30.8739 88.0952 31.2771 86.229 31.2771ZM86.229 27.061C87.1045 27.061 87.9224 26.8536 88.6827 26.4389C89.466 26.0012 90.088 25.3561 90.5488 24.5037C91.0096 23.6512 91.24 22.6145 91.24 21.3934C91.24 19.5733 90.7562 18.1795 89.7885 17.2118C88.8439 16.2211 87.6805 15.7258 86.2981 15.7258C84.9158 15.7258 83.7523 16.2211 82.8077 17.2118C81.8862 18.1795 81.4254 19.5733 81.4254 21.3934C81.4254 23.2135 81.8747 24.6188 82.7732 25.6095C83.6947 26.5772 84.8467 27.061 86.229 27.061Z" fill="#343434"/>
<path d="M123.542 11.5442C125.892 11.5442 127.781 12.27 129.209 13.7214C130.661 15.1498 131.386 17.1542 131.386 19.7346V30.9661H126.548V20.3912C126.548 18.8937 126.168 17.7532 125.408 16.9699C124.647 16.1635 123.611 15.7604 122.297 15.7604C120.984 15.7604 119.936 16.1635 119.153 16.9699C118.392 17.7532 118.012 18.8937 118.012 20.3912V30.9661H113.174V20.3912C113.174 18.8937 112.794 17.7532 112.034 16.9699C111.273 16.1635 110.237 15.7604 108.923 15.7604C107.587 15.7604 106.527 16.1635 105.744 16.9699C104.984 17.7532 104.604 18.8937 104.604 20.3912V30.9661H99.7654V11.8207H104.604V14.1361C105.226 13.3298 106.02 12.6962 106.988 12.2354C107.979 11.7746 109.062 11.5442 110.237 11.5442C111.734 11.5442 113.07 11.8668 114.245 12.5119C115.42 13.1339 116.33 14.0324 116.975 15.2074C117.598 14.1016 118.496 13.2146 119.671 12.5464C120.869 11.8783 122.159 11.5442 123.542 11.5442Z" fill="#343434"/>
<path d="M140.816 14.5854C141.438 13.7099 142.29 12.9842 143.373 12.4082C144.479 11.8092 145.734 11.5097 147.14 11.5097C148.776 11.5097 150.25 11.9129 151.563 12.7192C152.9 13.5256 153.948 14.6775 154.708 16.1751C155.491 17.6496 155.883 19.366 155.883 21.3243C155.883 23.2826 155.491 25.022 154.708 26.5426C153.948 28.0401 152.9 29.2036 151.563 30.033C150.25 30.8624 148.776 31.2771 147.14 31.2771C145.734 31.2771 144.49 30.9891 143.408 30.4131C142.348 29.8372 141.484 29.1114 140.816 28.236V40.0895H135.977V11.8207H140.816V14.5854ZM150.941 21.3243C150.941 20.1723 150.699 19.1817 150.216 18.3523C149.755 17.4998 149.133 16.8547 148.349 16.417C147.589 15.9792 146.76 15.7604 145.861 15.7604C144.986 15.7604 144.156 15.9908 143.373 16.4515C142.613 16.8893 141.991 17.5344 141.507 18.3868C141.046 19.2392 140.816 20.2414 140.816 21.3934C140.816 22.5453 141.046 23.5475 141.507 24.4C141.991 25.2524 142.613 25.909 143.373 26.3698C144.156 26.8075 144.986 27.0264 145.861 27.0264C146.76 27.0264 147.589 26.796 148.349 26.3353C149.133 25.8745 149.755 25.2179 150.216 24.3654C150.699 23.513 150.941 22.4993 150.941 21.3243Z" fill="#343434"/>
<path d="M158.155 21.3243C158.155 19.389 158.535 17.6726 159.295 16.1751C160.079 14.6775 161.127 13.5256 162.44 12.7192C163.776 11.9129 165.262 11.5097 166.898 11.5097C168.327 11.5097 169.571 11.7977 170.63 12.3736C171.713 12.9496 172.577 13.6753 173.222 14.5508V11.8207H178.095V30.9661H173.222V28.1668C172.6 29.0654 171.736 29.8141 170.63 30.4131C169.548 30.9891 168.292 31.2771 166.864 31.2771C165.251 31.2771 163.776 30.8624 162.44 30.033C161.127 29.2036 160.079 28.0401 159.295 26.5426C158.535 25.022 158.155 23.2826 158.155 21.3243ZM173.222 21.3934C173.222 20.2184 172.992 19.2162 172.531 18.3868C172.07 17.5344 171.448 16.8893 170.665 16.4515C169.882 15.9908 169.041 15.7604 168.142 15.7604C167.244 15.7604 166.414 15.9792 165.654 16.417C164.894 16.8547 164.272 17.4998 163.788 18.3523C163.327 19.1817 163.097 20.1723 163.097 21.3243C163.097 22.4762 163.327 23.4899 163.788 24.3654C164.272 25.2179 164.894 25.8745 165.654 26.3353C166.437 26.796 167.267 27.0264 168.142 27.0264C169.041 27.0264 169.882 26.8075 170.665 26.3698C171.448 25.909 172.07 25.2639 172.531 24.4345C172.992 23.5821 173.222 22.5684 173.222 21.3934Z" fill="#343434"/>
<path d="M193.43 11.5442C195.711 11.5442 197.554 12.27 198.959 13.7214C200.365 15.1498 201.067 17.1542 201.067 19.7346V30.9661H196.229V20.3912C196.229 18.8706 195.849 17.7072 195.089 16.9008C194.328 16.0714 193.292 15.6567 191.978 15.6567C190.642 15.6567 189.582 16.0714 188.799 16.9008C188.039 17.7072 187.659 18.8706 187.659 20.3912V30.9661H182.82V11.8207H187.659V14.2052C188.304 13.3758 189.122 12.7307 190.112 12.27C191.126 11.7861 192.232 11.5442 193.43 11.5442Z" fill="#343434"/>
<path d="M223.984 11.8207L212.131 40.0204H206.981L211.128 30.4823L203.456 11.8207H208.882L213.824 25.1948L218.835 11.8207H223.984Z" fill="#343434"/>
<path d="M34.3671 19.7973C34.3671 23.3735 33.2513 26.8607 31.1752 29.7726C29.0992 32.6845 26.1663 34.8762 22.7855 36.0421C19.4046 37.2079 15.7442 37.2899 12.3146 36.2766C8.88491 35.2633 5.85686 33.2051 3.65251 30.3891C1.44816 27.573 0.177356 24.1393 0.0172328 20.5667C-0.14289 16.994 0.81565 13.4605 2.75924 10.4585C4.70283 7.4565 7.53462 5.13573 10.8599 3.81965C14.1851 2.50358 17.8382 2.25779 21.3098 3.11653L17.1835 19.7973H34.3671Z" fill="#343434"/>
<path d="M24.4667 0.48312C28.2135 1.39086 31.5463 3.53222 33.9291 6.5629C36.3119 9.59359 37.6063 13.3375 37.6042 17.1927L20.4207 17.1835L24.4667 0.48312Z" fill="#626262"/>
</svg>
