<svg width="221" height="37" viewBox="0 0 221 37" fill="none" xmlns="http://www.w3.org/2000/svg">
<path d="M76.6653 19.6555C75.0651 22.2515 72.7891 23.7451 69.8375 23.7451C65.5702 23.7451 62.4408 20.2956 62.4408 15.8505C62.4408 11.4053 65.4279 7.99138 69.9087 7.99138C72.7536 7.99138 75.314 9.59165 76.5942 12.0098L80.7193 8.73817C78.6212 5.00422 74.8161 2.76385 69.9798 2.76385C62.2274 2.76385 56.7865 8.5248 56.7865 15.8505C56.7865 23.1761 62.3341 28.9726 69.9087 28.9726C74.6739 28.9726 78.6568 26.4478 80.826 22.8561L76.6653 19.6555Z" fill="#343434"/>
<path d="M92.1223 9.87614C86.4325 9.87614 82.3429 14.0013 82.3429 19.4066C82.3429 24.7764 86.4325 28.9726 92.1223 28.9726C97.8121 28.9726 101.902 24.7764 101.902 19.4066C101.902 14.0013 97.8121 9.87614 92.1223 9.87614ZM92.1223 14.6769C94.5761 14.6769 96.4252 16.5617 96.4252 19.4066C96.4252 22.2515 94.5761 24.1718 92.1223 24.1718C89.6686 24.1718 87.8194 22.2515 87.8194 19.4066C87.8194 16.5617 89.6686 14.6769 92.1223 14.6769Z" fill="#343434"/>
<path d="M105.435 10.3029V28.5459H110.84V19.051C110.84 16.6684 112.085 14.6414 114.361 14.6414C116.352 14.6414 117.632 15.886 117.632 18.2686V28.5459H123.038V19.051C123.038 16.6684 124.282 14.6414 126.558 14.6414C128.55 14.6414 129.794 15.886 129.794 18.2686V28.5459H135.2V17.4507C135.2 12.721 132.533 9.87614 128.159 9.87614C125.065 9.87614 123.322 11.2275 122.006 13.0767C120.762 11.0497 118.77 9.87614 115.961 9.87614C113.578 9.87614 111.8 10.8007 110.627 12.6499V10.3029H105.435Z" fill="#343434"/>
<path d="M149.381 14.6414C151.693 14.6414 153.613 16.5261 153.613 19.4777C153.613 22.3226 151.693 24.2074 149.381 24.2074C146.963 24.2074 145.079 22.3582 145.079 19.4777C145.079 16.4906 146.963 14.6414 149.381 14.6414ZM144.83 10.3029H139.815V35.6582H145.221V26.5544C146.359 28.2614 148.528 28.9726 150.484 28.9726C155.462 28.9726 159.054 24.8475 159.054 19.4066C159.054 13.7879 155.178 9.87614 150.519 9.87614C148.741 9.87614 146.252 10.6229 144.83 12.8277V10.3029Z" fill="#343434"/>
<path d="M172.056 17.2018L167.078 18.1619C163.237 18.9799 161.139 20.8291 161.139 23.5317C161.139 26.6967 163.628 28.9726 167.184 28.9726C169.603 28.9726 171.381 27.9058 172.234 26.3055V28.5459H177.248V17.0595C177.248 12.6144 174.226 9.87614 169.14 9.87614C165.726 9.87614 162.988 11.2986 161.317 13.3256L164.126 16.7395C165.229 15.4948 166.793 14.5347 168.82 14.5347C170.669 14.5347 172.056 15.2459 172.056 17.0595V17.2018ZM168.393 24.9542C167.113 24.9542 166.295 24.2429 166.295 23.2117C166.295 22.2159 167.007 21.5758 168.465 21.3269L172.092 20.6157V21.1491C172.092 23.3184 170.634 24.9542 168.393 24.9542Z" fill="#343434"/>
<path d="M181.802 10.3029V28.5459H187.207V19.051C187.207 16.6684 188.452 14.6414 190.799 14.6414C192.79 14.6414 194.07 15.886 194.07 18.2686V28.5459H199.476V17.4507C199.476 12.721 196.773 9.87614 192.399 9.87614C189.945 9.87614 188.167 10.8007 186.993 12.6499V10.3029H181.802Z" fill="#343434"/>
<path d="M208.301 27.8702L208.088 28.4748C207.306 31.0707 205.99 31.533 204.568 31.533C203.963 31.533 203.038 31.4619 202.078 30.9285V35.4092C202.896 35.8004 204.07 36.0849 205.35 36.0849C208.799 36.0849 211.004 34.4491 212.818 30.0395L220.783 10.3029H215.271L211.004 22.2515L206.772 10.3029H201.118L208.301 27.8702Z" fill="#343434"/>
<path d="M24.8676 0.293457H18.6528C18.2092 0.293457 17.8495 0.65312 17.8495 1.09679V31.852C17.8495 32.2957 18.2092 32.6554 18.6528 32.6554H24.8676C25.3113 32.6554 25.671 32.2957 25.671 31.852V1.09679C25.671 0.65312 25.3113 0.293457 24.8676 0.293457Z" fill="#343434"/>
<path d="M36.1656 32.6549C39.8375 32.6549 42.8141 29.6783 42.8141 26.0064C42.8141 22.3345 39.8375 19.3579 36.1656 19.3579C32.4937 19.3579 29.5171 22.3345 29.5171 26.0064C29.5171 29.6783 32.4937 32.6549 36.1656 32.6549Z" fill="#626262"/>
<path d="M36.1656 13.5905C39.8375 13.5905 42.8141 10.6138 42.8141 6.94197C42.8141 3.2701 39.8375 0.293457 36.1656 0.293457C32.4937 0.293457 29.5171 3.2701 29.5171 6.94197C29.5171 10.6138 32.4937 13.5905 36.1656 13.5905Z" fill="#626262"/>
<path d="M7.35627 32.6549C11.0281 32.6549 14.0048 29.6783 14.0048 26.0064C14.0048 22.3345 11.0281 19.3579 7.35627 19.3579C3.6844 19.3579 0.707764 22.3345 0.707764 26.0064C0.707764 29.6783 3.6844 32.6549 7.35627 32.6549Z" fill="#626262"/>
</svg>
