<svg width="225" height="37" viewBox="0 0 225 37" fill="none" xmlns="http://www.w3.org/2000/svg">
<path d="M28.1318 15.7009C23.3672 15.7009 19.4996 11.8481 19.4996 7.11282C19.4996 6.49518 19.5731 5.90695 19.6907 5.31873H8.22028C3.77916 5.31873 0.17627 8.90691 0.17627 13.3186V28.0978C0.17627 32.5243 3.77916 36.0977 8.22028 36.0977H23.073C27.5289 36.0977 31.1171 32.5096 31.1171 28.0978V15.1568C30.2053 15.4951 29.1906 15.7009 28.1318 15.7009Z" fill="#343434"/>
<path d="M31.1308 28.0979V15.1568C30.2044 15.4951 29.1897 15.7009 28.1456 15.7009C23.3809 15.7009 19.5133 11.8481 19.5133 7.11282C19.5133 6.49518 19.5869 5.90695 19.7045 5.31873H8.23408C3.82237 5.31873 0.248886 8.84809 0.190063 13.2304C10.7782 17.598 21.6604 22.9067 31.072 29.1125C31.1014 28.7743 31.1308 28.4361 31.1308 28.0979Z" fill="#343434"/>
<path d="M28.7925 12.7345C32.2484 12.7345 35.0424 9.9551 35.0424 6.51397C35.0424 3.08754 32.2484 0.293457 28.7925 0.293457C25.3367 0.293457 22.5426 3.07283 22.5426 6.51397C22.5426 9.94039 25.3367 12.7345 28.7925 12.7345Z" fill="#626262"/>
<path d="M66.6585 20.6475C66.4125 21.6929 65.9974 22.7076 65.4132 23.6915C64.829 24.6447 64.1065 25.5056 63.2455 26.2743C62.3846 27.0122 61.4007 27.6118 60.2938 28.073C59.1869 28.5034 58.0031 28.7187 56.7425 28.7187C55.2973 28.7187 53.9291 28.442 52.6377 27.8885C51.3771 27.3043 50.2548 26.5202 49.2709 25.5363C48.3177 24.5524 47.549 23.4148 46.9648 22.1234C46.4114 20.8012 46.1346 19.3869 46.1346 17.8802C46.1346 16.3736 46.4114 14.9746 46.9648 13.6832C47.549 12.3611 48.3177 11.2081 49.2709 10.2242C50.2548 9.24024 51.3771 8.47156 52.6377 7.91811C53.9291 7.33391 55.2973 7.04181 56.7425 7.04181C58.0031 7.04181 59.1869 7.27241 60.2938 7.73362C61.4007 8.16409 62.3846 8.76366 63.2455 9.53234C64.1065 10.2703 64.829 11.1312 65.4132 12.1151C65.9974 13.0683 66.4125 14.0676 66.6585 15.113H61.3546C61.1086 14.5595 60.7704 14.0676 60.3399 13.6371C59.9709 13.2681 59.4944 12.9299 58.9102 12.6224C58.326 12.2842 57.6034 12.1151 56.7425 12.1151C55.2359 12.1151 53.9752 12.6378 52.9605 13.6832C51.9459 14.7286 51.4386 16.1276 51.4386 17.8802C51.4386 19.6328 51.9459 21.0318 52.9605 22.0773C53.9752 23.1227 55.2359 23.6454 56.7425 23.6454C57.6034 23.6454 58.326 23.4916 58.9102 23.1842C59.4944 22.8767 59.9709 22.5385 60.3399 22.1695C60.7704 21.739 61.1086 21.2317 61.3546 20.6475H66.6585Z" fill="#343434"/>
<path d="M75.4215 17.8802C75.4215 19.6328 75.9288 21.0318 76.9435 22.0773C77.9581 23.1227 79.2188 23.6454 80.7254 23.6454C82.232 23.6454 83.4926 23.1227 84.5073 22.0773C85.522 21.0318 86.0293 19.6328 86.0293 17.8802C86.0293 16.1276 85.522 14.7286 84.5073 13.6832C83.4926 12.6378 82.232 12.1151 80.7254 12.1151C79.2188 12.1151 77.9581 12.6378 76.9435 13.6832C75.9288 14.7286 75.4215 16.1276 75.4215 17.8802ZM91.3332 17.8802C91.3332 19.3869 91.0411 20.8012 90.4569 22.1234C89.9035 23.4148 89.1348 24.5524 88.1509 25.5363C87.1977 26.5202 86.0754 27.3043 84.784 27.8885C83.5234 28.442 82.1705 28.7187 80.7254 28.7187C79.2803 28.7187 77.912 28.442 76.6206 27.8885C75.36 27.3043 74.2377 26.5202 73.2538 25.5363C72.3006 24.5524 71.5319 23.4148 70.9477 22.1234C70.3943 20.8012 70.1176 19.3869 70.1176 17.8802C70.1176 16.3736 70.3943 14.9746 70.9477 13.6832C71.5319 12.3611 72.3006 11.2081 73.2538 10.2242C74.2377 9.24024 75.36 8.47156 76.6206 7.91811C77.912 7.33391 79.2803 7.04181 80.7254 7.04181C82.1705 7.04181 83.5234 7.33391 84.784 7.91811C86.0754 8.47156 87.1977 9.24024 88.1509 10.2242C89.1348 11.2081 89.9035 12.3611 90.4569 13.6832C91.0411 14.9746 91.3332 16.3736 91.3332 17.8802Z" fill="#343434"/>
<path d="M106.07 7.04181C107.146 7.04181 108.069 7.19555 108.838 7.50302C109.606 7.77975 110.237 8.08722 110.729 8.42544C111.282 8.82515 111.728 9.28636 112.066 9.80907C112.558 9.28636 113.127 8.82515 113.772 8.42544C114.326 8.08722 114.987 7.77975 115.756 7.50302C116.524 7.19555 117.37 7.04181 118.292 7.04181C120.598 7.04181 122.443 7.77974 123.827 9.25562C125.211 10.7315 125.902 12.9145 125.902 15.8048V28.4881H120.598V16.266C120.598 14.9746 120.245 13.96 119.538 13.222C118.861 12.4841 118.062 12.1151 117.139 12.1151C116.217 12.1151 115.402 12.4841 114.695 13.222C114.018 13.96 113.68 14.9746 113.68 16.266V28.4881H108.376V16.266C108.376 14.9746 108.023 13.96 107.316 13.222C106.639 12.4841 105.84 12.1151 104.917 12.1151C103.995 12.1151 103.18 12.4841 102.473 13.222C101.796 13.96 101.458 14.9746 101.458 16.266V28.4881H96.1543V7.27241H100.075L100.997 9.34786C101.427 8.9174 101.904 8.53305 102.427 8.19483C102.857 7.91811 103.38 7.65676 103.995 7.41078C104.61 7.1648 105.302 7.04181 106.07 7.04181Z" fill="#343434"/>
<path d="M142.506 7.04181C143.828 7.04181 145.089 7.31853 146.288 7.87199C147.487 8.39469 148.532 9.148 149.424 10.1319C150.346 11.0851 151.069 12.2227 151.592 13.5449C152.145 14.867 152.422 16.3121 152.422 17.8802C152.422 19.4484 152.145 20.8935 151.592 22.2156C151.069 23.5377 150.346 24.6908 149.424 25.6747C148.532 26.6279 147.487 27.3812 146.288 27.9346C145.089 28.4573 143.828 28.7187 142.506 28.7187C141.614 28.7187 140.83 28.6111 140.154 28.3958C139.508 28.1806 138.939 27.95 138.447 27.704C137.894 27.3965 137.402 27.0429 136.971 26.6432V35.8674H131.667V7.27241H135.588L136.51 9.34786C136.971 8.9174 137.509 8.53305 138.124 8.19483C138.647 7.91811 139.277 7.65676 140.015 7.41078C140.753 7.1648 141.583 7.04181 142.506 7.04181ZM136.51 17.8802C136.51 19.6328 137.017 21.0318 138.032 22.0773C139.047 23.1227 140.307 23.6454 141.814 23.6454C143.321 23.6454 144.581 23.1227 145.596 22.0773C146.611 21.0318 147.118 19.6328 147.118 17.8802C147.118 16.1276 146.611 14.7286 145.596 13.6832C144.581 12.6378 143.321 12.1151 141.814 12.1151C140.307 12.1151 139.047 12.6378 138.032 13.6832C137.017 14.7286 136.51 16.1276 136.51 17.8802Z" fill="#343434"/>
<path d="M166.035 7.04181C167.234 7.04181 168.341 7.25704 169.355 7.6875C170.37 8.08722 171.246 8.65604 171.984 9.39398C172.722 10.1319 173.291 11.0082 173.691 12.0229C174.121 13.0375 174.337 14.1444 174.337 15.3436V28.4881H170.416L169.494 26.4126C169.002 26.8431 168.464 27.2274 167.88 27.5656C167.357 27.8731 166.727 28.1498 165.989 28.3958C165.251 28.6111 164.421 28.7187 163.498 28.7187C161.192 28.7187 159.424 28.1652 158.194 27.0583C156.964 25.9207 156.349 24.4755 156.349 22.7229C156.349 21.6775 156.549 20.7244 156.949 19.8634C157.379 18.9718 158.087 18.2185 159.071 17.6035C160.054 16.9578 161.346 16.4659 162.945 16.1276C164.574 15.7587 166.604 15.5742 169.033 15.5742C169.033 14.4058 168.71 13.4987 168.064 12.8531C167.449 12.2074 166.619 11.8845 165.574 11.8845C164.866 11.8845 164.298 12.0075 163.867 12.2535C163.467 12.4995 163.145 12.7608 162.899 13.0375C162.622 13.3758 162.437 13.7601 162.345 14.1906H157.041C157.164 13.2066 157.441 12.2842 157.871 11.4233C158.333 10.5624 158.948 9.80907 159.716 9.16337C160.485 8.51768 161.392 8.01035 162.437 7.64138C163.513 7.24167 164.713 7.04181 166.035 7.04181ZM164.421 24.5678C165.804 24.5678 166.911 24.1681 167.741 23.3686C168.602 22.5385 169.033 21.4777 169.033 20.1863V19.2639C167.465 19.2639 166.204 19.3407 165.251 19.4945C164.298 19.6175 163.544 19.8173 162.991 20.094C162.468 20.34 162.114 20.6475 161.93 21.0165C161.746 21.3854 161.653 21.8005 161.653 22.2617C161.653 22.8459 161.915 23.384 162.437 23.876C162.96 24.3372 163.621 24.5678 164.421 24.5678Z" fill="#343434"/>
<path d="M190.922 7.04181C192.183 7.04181 193.336 7.25704 194.381 7.6875C195.427 8.08722 196.318 8.68679 197.056 9.48622C197.825 10.2549 198.409 11.1927 198.809 12.2996C199.239 13.4065 199.454 14.6518 199.454 16.0354V28.4881H194.151V16.7272C194.151 15.3436 193.735 14.2367 192.905 13.4065C192.106 12.5456 191.06 12.1151 189.769 12.1151C188.478 12.1151 187.417 12.5456 186.587 13.4065C185.787 14.2367 185.388 15.3436 185.388 16.7272V28.4881H180.084V7.27241H184.004L184.926 9.34786C185.449 8.9174 186.018 8.53305 186.633 8.19483C187.156 7.91811 187.77 7.65676 188.478 7.41078C189.216 7.1648 190.03 7.04181 190.922 7.04181Z" fill="#343434"/>
<path d="M202.932 7.27241H208.466L213.77 21.1087L218.613 7.27241H224.147C222.641 11.1466 221.272 14.6518 220.042 17.788C219.52 19.1409 218.997 20.463 218.474 21.7544C217.982 23.0458 217.537 24.2296 217.137 25.3057C216.737 26.3511 216.399 27.2274 216.122 27.9346C215.845 28.6418 215.676 29.0569 215.615 29.1799C215.092 30.4405 214.569 31.5013 214.047 32.3622C213.555 33.2539 213.017 33.9765 212.432 34.5299C211.848 35.0834 211.218 35.4831 210.542 35.7291C209.865 35.975 209.096 36.098 208.235 36.098C207.989 36.098 207.744 36.0827 207.498 36.0519C207.282 36.0519 207.098 36.0365 206.944 36.0058C206.729 35.975 206.544 35.9289 206.391 35.8674V31.4859C207.559 31.4859 208.451 31.2246 209.066 30.7019C209.711 30.1792 210.203 29.5181 210.542 28.7187L211.003 27.5656L202.932 7.27241Z" fill="#343434"/>
</svg>
