<svg width="227" height="37" viewBox="0 0 227 37" fill="none" xmlns="http://www.w3.org/2000/svg">
<path d="M50.3698 14.9897C50.3698 12.5823 50.9073 10.4319 51.9825 8.53861C53.0811 6.62197 54.5653 5.13774 56.4352 4.08593C58.3285 3.01074 60.4438 2.47314 62.7812 2.47314C65.5159 2.47314 67.9117 3.17435 69.9686 4.57677C72.0254 5.97919 73.4629 7.91921 74.281 10.3968H68.6363C68.0753 9.22813 67.2806 8.35162 66.2521 7.76728C65.2471 7.18294 64.0784 6.89076 62.7461 6.89076C61.3203 6.89076 60.0464 7.22968 58.9245 7.90752C57.8259 8.56198 56.9611 9.49693 56.33 10.7124C55.7223 11.9278 55.4185 13.3536 55.4185 14.9897C55.4185 16.6025 55.7223 18.0283 56.33 19.2671C56.9611 20.4825 57.8259 21.4292 58.9245 22.107C60.0464 22.7615 61.3203 23.0887 62.7461 23.0887C64.0784 23.0887 65.2471 22.7965 66.2521 22.2122C67.2806 21.6045 68.0753 20.7163 68.6363 19.5476H74.281C73.4629 22.0486 72.0254 24.0003 69.9686 25.4027C67.9351 26.7817 65.5393 27.4713 62.7812 27.4713C60.4438 27.4713 58.3285 26.9454 56.4352 25.8935C54.5653 24.8184 53.0811 23.3341 51.9825 21.4409C50.9073 19.5476 50.3698 17.3972 50.3698 14.9897Z" fill="#343434"/>
<path d="M87.0983 27.5765C85.2284 27.5765 83.5455 27.1674 82.0496 26.3493C80.5537 25.5079 79.3733 24.3275 78.5085 22.8082C77.6671 21.2889 77.2463 19.5359 77.2463 17.5492C77.2463 15.5624 77.6788 13.8094 78.5436 12.2901C79.4318 10.7708 80.6355 9.60211 82.1548 8.78403C83.6741 7.94258 85.3687 7.52185 87.2386 7.52185C89.1085 7.52185 90.8031 7.94258 92.3224 8.78403C93.8416 9.60211 95.0337 10.7708 95.8985 12.2901C96.7867 13.8094 97.2308 15.5624 97.2308 17.5492C97.2308 19.5359 96.775 21.2889 95.8635 22.8082C94.9753 24.3275 93.7598 25.5079 92.2172 26.3493C90.6979 27.1674 88.9916 27.5765 87.0983 27.5765ZM87.0983 23.2991C87.9865 23.2991 88.8163 23.0887 89.5876 22.668C90.3823 22.2239 91.0134 21.5694 91.4809 20.7046C91.9484 19.8398 92.1821 18.788 92.1821 17.5492C92.1821 15.7026 91.6913 14.2885 90.7096 13.3068C89.7512 12.3018 88.5709 11.7992 87.1685 11.7992C85.766 11.7992 84.5857 12.3018 83.6274 13.3068C82.6924 14.2885 82.2249 15.7026 82.2249 17.5492C82.2249 19.3957 82.6807 20.8215 83.5923 21.8265C84.5272 22.8082 85.6959 23.2991 87.0983 23.2991Z" fill="#343434"/>
<path d="M124.953 7.55691C127.337 7.55691 129.254 8.29318 130.703 9.76573C132.175 11.2149 132.912 13.2484 132.912 15.8662V27.2609H128.003V16.5324C128.003 15.0131 127.618 13.8561 126.846 13.0614C126.075 12.2433 125.023 11.8343 123.691 11.8343C122.358 11.8343 121.295 12.2433 120.5 13.0614C119.729 13.8561 119.343 15.0131 119.343 16.5324V27.2609H114.435V16.5324C114.435 15.0131 114.049 13.8561 113.278 13.0614C112.507 12.2433 111.455 11.8343 110.122 11.8343C108.767 11.8343 107.692 12.2433 106.897 13.0614C106.125 13.8561 105.74 15.0131 105.74 16.5324V27.2609H100.831V7.8374H105.74V10.1865C106.371 9.36837 107.177 8.7256 108.159 8.25812C109.164 7.79065 110.263 7.55691 111.455 7.55691C112.974 7.55691 114.33 7.88415 115.522 8.53861C116.714 9.1697 117.637 10.0813 118.291 11.2733C118.923 10.1514 119.834 9.2515 121.026 8.57367C122.242 7.89583 123.551 7.55691 124.953 7.55691Z" fill="#343434"/>
<path d="M142.478 10.6422C143.109 9.75404 143.974 9.01777 145.072 8.43343C146.194 7.82571 147.468 7.52185 148.894 7.52185C150.554 7.52185 152.05 7.93089 153.382 8.74897C154.737 9.56705 155.801 10.7357 156.572 12.255C157.367 13.7509 157.764 15.4923 157.764 17.479C157.764 19.4658 157.367 21.2305 156.572 22.7732C155.801 24.2925 154.737 25.4728 153.382 26.3143C152.05 27.1557 150.554 27.5765 148.894 27.5765C147.468 27.5765 146.206 27.2843 145.108 26.6999C144.032 26.1156 143.156 25.3793 142.478 24.4911V36.5169H137.57V7.8374H142.478V10.6422ZM152.751 17.479C152.751 16.3103 152.505 15.3053 152.014 14.4638C151.547 13.599 150.916 12.9445 150.121 12.5004C149.35 12.0563 148.508 11.8343 147.597 11.8343C146.709 11.8343 145.867 12.068 145.072 12.5355C144.301 12.9796 143.67 13.6341 143.179 14.4989C142.712 15.3637 142.478 16.3805 142.478 17.5492C142.478 18.7178 142.712 19.7346 143.179 20.5994C143.67 21.4642 144.301 22.1304 145.072 22.5979C145.867 23.042 146.709 23.264 147.597 23.264C148.508 23.264 149.35 23.0303 150.121 22.5628C150.916 22.0953 151.547 21.4292 152.014 20.5644C152.505 19.6995 152.751 18.6711 152.751 17.479Z" fill="#343434"/>
<path d="M160.069 17.479C160.069 15.5156 160.455 13.7743 161.226 12.255C162.021 10.7357 163.084 9.56705 164.417 8.74897C165.772 7.93089 167.28 7.52185 168.939 7.52185C170.389 7.52185 171.651 7.81403 172.726 8.39837C173.824 8.98271 174.701 9.71898 175.355 10.6072V7.8374H180.299V27.2609H175.355V24.421C174.724 25.3326 173.848 26.0922 172.726 26.6999C171.627 27.2843 170.353 27.5765 168.904 27.5765C167.268 27.5765 165.772 27.1557 164.417 26.3143C163.084 25.4728 162.021 24.2925 161.226 22.7732C160.455 21.2305 160.069 19.4658 160.069 17.479ZM175.355 17.5492C175.355 16.3571 175.122 15.3403 174.654 14.4989C174.187 13.6341 173.556 12.9796 172.761 12.5355C171.966 12.068 171.113 11.8343 170.202 11.8343C169.29 11.8343 168.449 12.0563 167.677 12.5004C166.906 12.9445 166.275 13.599 165.784 14.4638C165.316 15.3053 165.083 16.3103 165.083 17.479C165.083 18.6477 165.316 19.6762 165.784 20.5644C166.275 21.4292 166.906 22.0953 167.677 22.5628C168.472 23.0303 169.313 23.264 170.202 23.264C171.113 23.264 171.966 23.042 172.761 22.5979C173.556 22.1304 174.187 21.4759 174.654 20.6345C175.122 19.7696 175.355 18.7412 175.355 17.5492Z" fill="#343434"/>
<path d="M195.856 7.55691C198.17 7.55691 200.04 8.29318 201.466 9.76573C202.892 11.2149 203.605 13.2484 203.605 15.8662V27.2609H198.696V16.5324C198.696 14.9897 198.311 13.8094 197.539 12.9913C196.768 12.1498 195.716 11.7291 194.384 11.7291C193.028 11.7291 191.953 12.1498 191.158 12.9913C190.387 13.8094 190.001 14.9897 190.001 16.5324V27.2609H185.093V7.8374H190.001V10.2566C190.656 9.41512 191.486 8.76066 192.491 8.29319C193.519 7.80234 194.641 7.55691 195.856 7.55691Z" fill="#343434"/>
<path d="M226.855 7.8374L214.829 36.4468H209.605L213.812 26.7701L206.029 7.8374H211.533L216.547 21.4058L221.631 7.8374H226.855Z" fill="#343434"/>
<path d="M13.5681 36.2583C6.07376 36.2583 0.0224609 30.1604 0.0224609 22.7127C0.0224609 15.2649 6.07376 9.16705 13.5681 9.16705C21.0158 9.16705 27.1137 15.2184 27.1137 22.7127C27.0671 30.1604 21.0158 36.2583 13.5681 36.2583Z" fill="#343434"/>
<path d="M34.1385 0.509399H15.2008C14.299 0.509399 13.5679 1.24051 13.5679 2.14237V21.08C13.5679 21.9819 14.299 22.713 15.2008 22.713H34.1385C35.0404 22.713 35.7715 21.9819 35.7715 21.08V2.14237C35.7715 1.24051 35.0404 0.509399 34.1385 0.509399Z" fill="#626262"/>
</svg>
