<svg width="173" height="31" viewBox="0 0 173 31" fill="none" xmlns="http://www.w3.org/2000/svg">
<path d="M37.2412 13.046C37.2412 11.1972 37.654 9.54593 38.4797 8.09207C39.3233 6.62026 40.463 5.4805 41.899 4.6728C43.3528 3.84715 44.9772 3.43433 46.7721 3.43433C48.8721 3.43433 50.7119 3.97279 52.2914 5.04973C53.8709 6.12666 54.9747 7.61642 55.6029 9.51901H51.2683C50.8375 8.62156 50.2272 7.94848 49.4375 7.49976C48.6657 7.05103 47.7682 6.82667 46.7452 6.82667C45.6503 6.82667 44.6721 7.08693 43.8105 7.60745C42.9669 8.11002 42.3028 8.82798 41.8182 9.76132C41.3515 10.6947 41.1182 11.7895 41.1182 13.046C41.1182 14.2844 41.3515 15.3793 41.8182 16.3306C42.3028 17.264 42.9669 17.9909 43.8105 18.5114C44.6721 19.014 45.6503 19.2653 46.7452 19.2653C47.7682 19.2653 48.6657 19.0409 49.4375 18.5922C50.2272 18.1255 50.8375 17.4435 51.2683 16.546H55.6029C54.9747 18.4665 53.8709 19.9653 52.2914 21.0422C50.7298 22.1012 48.8901 22.6307 46.7721 22.6307C44.9772 22.6307 43.3528 22.2268 41.899 21.4191C40.463 20.5935 39.3233 19.4537 38.4797 17.9999C37.654 16.546 37.2412 14.8947 37.2412 13.046Z" fill="#343434"/>
<path d="M65.4455 22.7115C64.0096 22.7115 62.7173 22.3974 61.5686 21.7691C60.4198 21.123 59.5134 20.2166 58.8493 19.0499C58.2032 17.8832 57.8801 16.537 57.8801 15.0114C57.8801 13.4857 58.2121 12.1396 58.8762 10.9729C59.5583 9.80619 60.4827 8.90875 61.6493 8.28053C62.816 7.63437 64.1173 7.31129 65.5532 7.31129C66.9891 7.31129 68.2904 7.63437 69.4571 8.28053C70.6238 8.90875 71.5392 9.80619 72.2033 10.9729C72.8854 12.1396 73.2264 13.4857 73.2264 15.0114C73.2264 16.537 72.8764 17.8832 72.1764 19.0499C71.4943 20.2166 70.561 21.123 69.3764 21.7691C68.2097 22.3974 66.8994 22.7115 65.4455 22.7115ZM65.4455 19.4268C66.1276 19.4268 66.7648 19.2653 67.3571 18.9422C67.9674 18.6012 68.452 18.0986 68.811 17.4345C69.1699 16.7704 69.3494 15.9627 69.3494 15.0114C69.3494 13.5934 68.9725 12.5075 68.2186 11.7536C67.4827 10.9818 66.5763 10.5959 65.4994 10.5959C64.4225 10.5959 63.516 10.9818 62.7801 11.7536C62.0622 12.5075 61.7032 13.5934 61.7032 15.0114C61.7032 16.4293 62.0532 17.5242 62.7532 18.296C63.4712 19.0499 64.3686 19.4268 65.4455 19.4268Z" fill="#343434"/>
<path d="M94.5146 7.33822C96.3454 7.33822 97.8172 7.90361 98.93 9.03439C100.061 10.1472 100.626 11.7088 100.626 13.7191V22.4692H96.8569V14.2306C96.8569 13.0639 96.5608 12.1754 95.9684 11.5652C95.3761 10.937 94.5684 10.6229 93.5453 10.6229C92.5222 10.6229 91.7056 10.937 91.0953 11.5652C90.503 12.1754 90.2068 13.0639 90.2068 14.2306V22.4692H86.4376V14.2306C86.4376 13.0639 86.1414 12.1754 85.5491 11.5652C84.9568 10.937 84.1491 10.6229 83.126 10.6229C82.085 10.6229 81.2593 10.937 80.649 11.5652C80.0567 12.1754 79.7606 13.0639 79.7606 14.2306V22.4692H75.9913V7.5536H79.7606V9.35747C80.2452 8.72926 80.8644 8.23566 81.6183 7.87668C82.3901 7.5177 83.2337 7.33822 84.1491 7.33822C85.3158 7.33822 86.3568 7.5895 87.2722 8.09207C88.1876 8.57669 88.8966 9.2767 89.3991 10.1921C89.8838 9.33054 90.5838 8.63951 91.4992 8.11899C92.4325 7.59847 93.4376 7.33822 94.5146 7.33822Z" fill="#343434"/>
<path d="M107.972 9.70747C108.457 9.02541 109.121 8.46002 109.965 8.0113C110.826 7.54463 111.804 7.31129 112.899 7.31129C114.174 7.31129 115.322 7.6254 116.345 8.25361C117.386 8.88182 118.203 9.77927 118.795 10.9459C119.406 12.0947 119.711 13.4319 119.711 14.9575C119.711 16.4832 119.406 17.8383 118.795 19.023C118.203 20.1896 117.386 21.0961 116.345 21.7422C115.322 22.3884 114.174 22.7115 112.899 22.7115C111.804 22.7115 110.835 22.4871 109.992 22.0384C109.166 21.5897 108.493 21.0243 107.972 20.3422V29.5769H104.203V7.5536H107.972V9.70747ZM115.861 14.9575C115.861 14.0601 115.672 13.2883 115.295 12.6421C114.936 11.978 114.452 11.4754 113.842 11.1344C113.249 10.7934 112.603 10.6229 111.903 10.6229C111.221 10.6229 110.575 10.8024 109.965 11.1613C109.372 11.5024 108.888 12.0049 108.511 12.669C108.152 13.3332 107.972 14.1139 107.972 15.0114C107.972 15.9088 108.152 16.6896 108.511 17.3537C108.888 18.0178 109.372 18.5294 109.965 18.8883C110.575 19.2294 111.221 19.3999 111.903 19.3999C112.603 19.3999 113.249 19.2204 113.842 18.8614C114.452 18.5024 114.936 17.9909 115.295 17.3268C115.672 16.6627 115.861 15.8729 115.861 14.9575Z" fill="#343434"/>
<path d="M121.481 14.9575C121.481 13.4498 121.777 12.1126 122.369 10.9459C122.979 9.77927 123.796 8.88182 124.819 8.25361C125.86 7.6254 127.018 7.31129 128.292 7.31129C129.405 7.31129 130.374 7.53565 131.2 7.98438C132.044 8.4331 132.717 8.99849 133.219 9.68055V7.5536H137.015V22.4692H133.219V20.2884C132.735 20.9884 132.062 21.5717 131.2 22.0384C130.356 22.4871 129.378 22.7115 128.265 22.7115C127.009 22.7115 125.86 22.3884 124.819 21.7422C123.796 21.0961 122.979 20.1896 122.369 19.023C121.777 17.8383 121.481 16.4832 121.481 14.9575ZM133.219 15.0114C133.219 14.096 133.04 13.3152 132.681 12.669C132.322 12.0049 131.837 11.5024 131.227 11.1613C130.617 10.8024 129.961 10.6229 129.261 10.6229C128.561 10.6229 127.915 10.7934 127.323 11.1344C126.731 11.4754 126.246 11.978 125.869 12.6421C125.51 13.2883 125.331 14.0601 125.331 14.9575C125.331 15.855 125.51 16.6447 125.869 17.3268C126.246 17.9909 126.731 18.5024 127.323 18.8614C127.933 19.2204 128.579 19.3999 129.261 19.3999C129.961 19.3999 130.617 19.2294 131.227 18.8883C131.837 18.5294 132.322 18.0268 132.681 17.3806C133.04 16.7165 133.219 15.9268 133.219 15.0114Z" fill="#343434"/>
<path d="M148.962 7.33822C150.739 7.33822 152.175 7.90361 153.27 9.03439C154.365 10.1472 154.912 11.7088 154.912 13.7191V22.4692H151.143V14.2306C151.143 13.046 150.847 12.1396 150.255 11.5113C149.662 10.8652 148.855 10.5421 147.831 10.5421C146.79 10.5421 145.965 10.8652 145.355 11.5113C144.762 12.1396 144.466 13.046 144.466 14.2306V22.4692H140.697V7.5536H144.466V9.41132C144.969 8.76515 145.606 8.26258 146.378 7.90361C147.167 7.52668 148.029 7.33822 148.962 7.33822Z" fill="#343434"/>
<path d="M172.766 7.5536L163.531 29.5231H159.52L162.751 22.0922L156.774 7.5536H161.001L164.851 17.9729L168.754 7.5536H172.766Z" fill="#343434"/>
<path d="M2.80412 30.575H0.117188V11.7593H10.1962V23.1829C10.1962 27.2649 6.88845 30.575 2.80412 30.575Z" fill="#343434"/>
<path d="M23.6357 11.7592C23.6357 5.26601 18.3721 0 11.8765 0C11.3061 0 10.7452 0.0431443 10.1963 0.122242V11.7592H23.6357V11.7592Z" fill="#343434"/>
<path d="M19.828 24.1551C22.4056 23.1033 23.6425 20.1611 22.5908 17.5835C21.539 15.0059 18.5968 13.769 16.0192 14.8207C13.4416 15.8725 12.2047 18.8147 13.2564 21.3923C14.3082 23.9699 17.2504 25.2068 19.828 24.1551Z" fill="#626262"/>
</svg>
