<svg width="171" height="40" viewBox="0 0 171 40" fill="none" xmlns="http://www.w3.org/2000/svg">
<g clip-path="url(#clip0)">
<path d="M68.777 12.2309H74.8366C74.7855 7.33458 70.8864 4.0235 64.8011 4.0235C58.8182 4.0235 54.5099 7.28344 54.5483 12.1542C54.5355 16.13 57.3224 18.3673 61.848 19.4028L64.5838 20.042C67.4602 20.7067 68.7514 21.4866 68.777 22.9567C68.7514 24.5547 67.2557 25.667 64.7116 25.667C61.9119 25.667 60.071 24.363 59.9304 21.8445H53.8707C53.9474 27.9681 58.2045 30.8957 64.7883 30.8957C71.3082 30.8957 75.169 27.9425 75.1946 22.9695C75.169 18.7891 72.3437 16.2323 67.179 15.0945L64.929 14.5832C62.5511 14.0718 61.0426 13.2792 61.0937 11.7195C61.1065 10.2877 62.3338 9.25219 64.7883 9.25219C67.2557 9.25219 68.6108 10.3644 68.777 12.2309Z" fill="#0D0D0D"/>
<path d="M83.9261 30.8957C86.6619 30.8957 88.554 29.8346 89.6278 27.8275H89.7812V30.5633H95.6619V17.2167C95.6619 13.0619 91.9673 10.6712 86.9687 10.6712C81.6889 10.6712 78.6974 13.3303 78.1989 16.9099L83.9645 17.1144C84.2329 15.8616 85.2685 15.0945 86.9176 15.0945C88.4517 15.0945 89.4233 15.836 89.4233 17.1528V17.2167C89.4233 18.4184 88.1193 18.6741 84.7699 18.9681C80.794 19.3005 77.4702 20.7707 77.4702 25.1173C77.4702 29.0036 80.1676 30.8957 83.9261 30.8957ZM85.8565 26.8048C84.4119 26.8048 83.3892 26.1144 83.3892 24.8104C83.3892 23.5448 84.3864 22.7778 86.1633 22.5093C87.3267 22.3431 88.7585 22.0874 89.4616 21.7167V23.5832C89.4616 25.5008 87.8508 26.8048 85.8565 26.8048Z" fill="#0D0D0D"/>
<path d="M105.02 30.8957C107.756 30.8957 109.648 29.8346 110.722 27.8275H110.875V30.5633H116.756V17.2167C116.756 13.0619 113.061 10.6712 108.062 10.6712C102.783 10.6712 99.7912 13.3303 99.2926 16.9099L105.058 17.1144C105.327 15.8616 106.362 15.0945 108.011 15.0945C109.545 15.0945 110.517 15.836 110.517 17.1528V17.2167C110.517 18.4184 109.213 18.6741 105.864 18.9681C101.888 19.3005 98.5639 20.7707 98.5639 25.1173C98.5639 29.0036 101.261 30.8957 105.02 30.8957ZM106.95 26.8048C105.506 26.8048 104.483 26.1144 104.483 24.8104C104.483 23.5448 105.48 22.7778 107.257 22.5093C108.42 22.3431 109.852 22.0874 110.555 21.7167V23.5832C110.555 25.5008 108.945 26.8048 106.95 26.8048Z" fill="#0D0D0D"/>
<path d="M137.722 16.9226C137.389 13.0363 134.206 10.6712 128.888 10.6712C123.57 10.6712 120.182 12.9851 120.207 16.9226C120.182 19.9397 122.112 21.8829 126.037 22.6116L129.463 23.2636C131.087 23.5832 131.828 24.0945 131.854 24.9638C131.828 25.9482 130.729 26.6002 129.131 26.6002C127.354 26.6002 126.152 25.8332 125.884 24.4013L119.709 24.5547C120.156 28.4411 123.493 30.934 129.105 30.934C134.359 30.934 138.182 28.3133 138.207 24.2735C138.182 21.4099 136.29 19.7096 132.378 18.9553L128.594 18.2394C126.932 17.907 126.395 17.319 126.408 16.5647C126.395 15.5675 127.558 14.9539 129.003 14.9539C130.652 14.9539 131.803 15.836 131.982 17.0761L137.722 16.9226Z" fill="#0D0D0D"/>
<path d="M147.537 4.38145H141.285V30.5633H147.537V4.38145Z" fill="#0D0D0D"/>
<path d="M155.338 37.9269C159.838 37.9269 162.075 35.6513 163.162 32.4425L170.564 10.9397L163.98 10.9269L160.311 24.9383H160.107L156.489 10.9269H149.943L156.923 31.2792L156.68 31.8673C156.08 33.3374 154.724 33.363 152.884 32.7621L151.503 37.3005C152.449 37.684 153.842 37.9269 155.338 37.9269Z" fill="#0D0D0D"/>
<path d="M31 -0.122375H9C4.02944 -0.122375 0 3.90706 0 8.87763V30.8776C0 35.8482 4.02944 39.8776 9 39.8776H20.6706C22.9986 39.8776 25.2359 38.9756 26.9129 37.361L37.2423 27.4157C39.0044 25.7191 40 23.3784 40 20.9323V8.87762C40 3.90706 35.9706 -0.122375 31 -0.122375Z" fill="#0C0C0C"/>
<path d="M16.1796 23.3127L12.5081 19.6412C11.7293 18.8625 10.4668 18.8625 9.68809 19.6412C8.90937 20.4199 8.90937 21.6825 9.68809 22.4612L15.3244 28.0975C15.7969 28.57 16.5627 28.57 17.0352 28.0975L30.3119 14.8204C31.0906 14.0417 31.0906 12.7791 30.3119 12.0004C29.5332 11.2217 28.2707 11.2217 27.492 12.0004L16.1796 23.3127Z" fill="white" stroke="white" stroke-width="0.563869"/>
<mask id="mask0" mask-type="alpha" maskUnits="userSpaceOnUse" x="0" y="-1" width="40" height="41">
<path d="M31 -0.122375H9C4.02944 -0.122375 0 3.90706 0 8.87763V30.8776C0 35.8482 4.02944 39.8776 9 39.8776H20.6706C22.9986 39.8776 25.2359 38.9756 26.9129 37.361L37.2423 27.4157C39.0044 25.7191 40 23.3784 40 20.9323V8.87762C40 3.90706 35.9706 -0.122375 31 -0.122375Z" fill="#0C0C0C"/>
</mask>
<g mask="url(#mask0)">
<path d="M40.3824 24.6715H31.6416C27.2233 24.6715 23.6416 28.2532 23.6416 32.6715V41.0708L40.3824 24.6715Z" fill="#626262"/>
</g>
</g>
<defs>
<clipPath id="clip0">
<rect width="171" height="40" fill="white"/>
</clipPath>
</defs>
</svg>
