<svg width="85" height="112" viewBox="0 0 85 112" fill="none" xmlns="http://www.w3.org/2000/svg">
<path d="M69.5 42.2438H15.5C8.04416 42.2438 2 48.2879 2 55.7438V96.2438C2 103.7 8.04416 109.744 15.5 109.744H69.5C76.9558 109.744 83 103.7 83 96.2438V55.7438C83 48.2879 76.9558 42.2438 69.5 42.2438Z" stroke="white" stroke-width="3" stroke-linecap="round" stroke-linejoin="round"/>
<path d="M15.5 42.2438V28.7438C15.5 21.5829 18.3446 14.7154 23.4081 9.65189C28.4716 4.58841 35.3392 1.74377 42.5 1.74377C49.6608 1.74377 56.5284 4.58841 61.5919 9.65189C66.6554 14.7154 69.5 21.5829 69.5 28.7438V42.2438" stroke="white" stroke-width="3" stroke-linecap="round" stroke-linejoin="round"/>
<path d="M42.5 67.0313C40.7273 67.0313 38.9944 67.5569 37.5205 68.5418C36.0466 69.5266 34.8978 70.9264 34.2195 72.5641C33.5411 74.2019 33.3636 76.004 33.7095 77.7426C34.0553 79.4812 34.9089 81.0782 36.1623 82.3316C37.4158 83.5851 39.0128 84.4387 40.7514 84.7845C42.49 85.1304 44.2922 84.9529 45.9299 84.2745C47.5676 83.5961 48.9674 82.4474 49.9522 80.9735C50.9371 79.4995 51.4627 77.7667 51.4627 75.994C51.4659 74.8161 51.2362 73.6492 50.7869 72.5604C50.3376 71.4716 49.6775 70.4823 48.8446 69.6494C48.0117 68.8165 47.0224 68.1564 45.9336 67.7071C44.8447 67.2578 43.6779 67.0281 42.5 67.0313" stroke="white" stroke-width="3" stroke-linecap="round" stroke-linejoin="round"/>
</svg>
