<svg width="780" height="184" viewBox="0 0 780 184" fill="none" xmlns="http://www.w3.org/2000/svg">
<path d="M222.737 109.192C223.423 119.287 231.899 125.854 244.613 125.854C257.65 125.854 266.126 119.084 266.126 108.26C266.126 99.9896 261.323 95.1248 249.174 92.4492L242.716 91.0303C234.765 89.287 231.657 86.1249 231.657 81.5034C231.657 75.544 237.267 71.9764 244.532 71.9764C252.12 71.9764 257.165 75.9088 257.811 82.3142H265.076C264.753 72.3818 256.358 65.4089 244.734 65.4089C232.666 65.4089 224.19 72.1791 224.19 81.8277C224.19 90.1384 229.235 95.4491 240.9 98.0032L247.358 99.4221C255.43 101.206 258.659 104.449 258.659 109.354C258.659 115.111 252.927 119.287 245.017 119.287C236.662 119.287 230.85 115.476 230.002 109.192H222.737Z" fill="black"/>
<path d="M316.67 124.881H324.298L302.826 66.3819H295.642L274.17 124.881H281.798L287.65 108.138H310.818L316.67 124.881ZM299.113 75.2602H299.355L308.679 101.936H289.789L299.113 75.2602Z" fill="black"/>
<path d="M370.484 118.314H342.392V66.3819H335.127V124.881H370.484V118.314Z" fill="black"/>
<path d="M418.728 118.314H389.91V98.2059H417.235V91.7194H389.91V72.9494H418.728V66.3819H382.645V124.881H418.728V118.314Z" fill="black"/>
<path d="M429.678 109.192C430.364 119.287 438.84 125.854 451.554 125.854C464.591 125.854 473.067 119.084 473.067 108.26C473.067 99.9896 468.264 95.1248 456.115 92.4492L449.657 91.0303C441.706 89.287 438.598 86.1249 438.598 81.5034C438.598 75.544 444.208 71.9764 451.473 71.9764C459.061 71.9764 464.106 75.9088 464.752 82.3142H472.017C471.694 72.3818 463.299 65.4089 451.675 65.4089C439.607 65.4089 431.131 72.1791 431.131 81.8277C431.131 90.1384 436.176 95.4491 447.841 98.0032L454.298 99.4221C462.371 101.206 465.6 104.449 465.6 109.354C465.6 115.111 459.868 119.287 451.957 119.287C443.603 119.287 437.791 115.476 436.943 109.192H429.678Z" fill="black"/>
<path d="M556.679 124.881V66.3819H544.49V90.1384H518.255V66.3819H506.066V124.881H518.255V100.233H544.49V124.881H556.679Z" fill="black"/>
<path d="M609.121 114.746H582.724V99.9896H607.627V90.5843H582.724V76.4764H609.121V66.3819H570.535V124.881H609.121V114.746Z" fill="black"/>
<path d="M634.278 75.9494H644.651C650.705 75.9494 654.499 79.598 654.499 85.2736C654.499 91.0708 650.907 94.5978 644.772 94.5978H634.278V75.9494ZM634.278 103.476H644.045L654.903 124.881H668.706L656.436 101.652C663.136 99.0167 667.011 92.5302 667.011 85.0303C667.011 73.4764 659.342 66.3819 645.942 66.3819H622.089V124.881H634.278V103.476Z" fill="black"/>
<path d="M705.488 65.3684C688.213 65.3684 677.396 77.0034 677.396 95.6518C677.396 114.26 688.213 125.895 705.488 125.895C722.722 125.895 733.579 114.26 733.579 95.6518C733.579 77.0034 722.722 65.3684 705.488 65.3684ZM705.488 75.5845C715.013 75.5845 721.107 83.3682 721.107 95.6518C721.107 107.895 715.013 115.638 705.488 115.638C695.922 115.638 689.827 107.895 689.827 95.6518C689.827 83.3682 695.962 75.5845 705.488 75.5845Z" fill="black"/>
<path fill-rule="evenodd" clip-rule="evenodd" d="M92.0002 0C41.19 0 0.000213623 41.1898 0.000213623 92C0.000213623 142.81 41.19 184 92.0002 184C142.81 184 184 142.81 184 92C184 41.1898 142.81 0 92.0002 0ZM92 43.5789C65.2578 43.5789 43.5789 65.2578 43.5789 92C43.5789 118.742 65.2578 140.421 92 140.421C118.742 140.421 140.421 118.742 140.421 92C140.421 65.2578 118.742 43.5789 92 43.5789Z" fill="#0065FF"/>
</svg>
